<svg width="616" height="183" viewBox="0 0 616 183" fill="none" xmlns="http://www.w3.org/2000/svg">
<path d="M61.2542 157.895C61.2542 144.53 67.9019 130.992 71.1103 118.158C80.1517 81.9927 95.6589 46.9698 98.9575 9.58552C99.0582 8.44415 98.7167 -2.90422 99.5051 3.79705C101.887 24.0404 109.021 43.7435 116.792 62.464C129.198 92.3469 145.134 120.781 166.385 145.302C170.646 150.218 175.681 155.855 181.091 159.773C183.663 161.636 175.682 156.412 172.8 155.079C123.208 132.15 71.4696 110.521 18.0754 98.2899C12.8631 97.0959 -2.59846 94.7712 2.66557 93.8312C21.1203 90.5357 41.1102 90.95 59.6898 89.3725C108.548 85.2242 163.796 85.2523 210.034 67.0009C224.486 61.296 231.119 52.3559 234.908 37.9021C237.507 27.9883 232.427 40.5393 232.092 43.2994C229.471 64.9288 242.807 81.4706 264.789 83.2711C281.918 84.6742 293.052 74.4817 305.778 65.28C308.496 63.3144 318.121 54.5201 320.718 59.5697C328.379 74.4659 339.43 78.4947 356.31 77.0133C368.347 75.9569 384.224 72.0988 395.734 68.8782C400.295 67.6019 419.724 58.134 426.162 60.5866C428.161 61.3481 429.28 65.9072 429.917 67.1573C432.307 71.849 436.118 76.0469 441.259 77.7956C454.71 82.3705 470.722 75.1916 482.639 69.504C489.046 66.446 492.371 61.8952 496.484 68.2524C515.114 97.0428 560.32 86.1223 586.049 74.5884C587.996 73.7157 583.899 82.6415 583.781 85.1485C583.46 91.944 588.134 94.7598 594.341 93.5183C598.216 92.7432 619.603 80.1306 612.958 80.5334C495.544 87.6493 378.266 103.986 262.286 123.008C189.196 134.996 113.993 147.461 44.6711 174.635C41.0398 176.059 31.0136 182.168 34.5021 180.424" stroke="black" stroke-width="3" stroke-linecap="round"/>
</svg>
